<svg id="Calque_1" xmlns="http://www.w3.org/2000/svg" viewBox="0 0 150 150" class="z-20 bg-white select-none transition-colors
                  h-10
                  text-barestho-blue cursor-pointer hover:text-barestho-red
                "><defs><style>.cls-1-snap-icon{stroke-linecap:round;}.cls-1-snap-icon,.cls-2-snap-icon{fill:none;stroke:currentColor;stroke-miterlimit:10;stroke-width:7px;}</style></defs><circle class="cls-2-snap-icon" cx="75" cy="75" r="68.27"></circle><path class="cls-1-snap-icon" d="M65.79,142.65l13.28-13.28c.84-.84,1.88-1.32,3.17-1.46,.5,.01,1.01-.26,1.57-.81,10.62-10.49,21.24-20.99,31.84-31.5,1.68-1.67,2.05-3.77,1.14-5.88-.87-2.02-3-3.36-5.21-3.29-.34,.01-.68,0-1.27,.01,2.34-2.28,2.89-4.77,1.6-7.51-1.34-2.83-3.7-4.15-7.06-4.1,1.97-2.81,2.05-5.5,.33-8.13-1.7-2.59-4.25-3.51-7.62-3.09,.59-.63,.89-.97,1.21-1.29,3.65-3.63,7.37-7.19,10.93-10.9,3.9-4.08,2.8-10.34-2.11-12.07-3.25-1.14-6.13-.11-8.52,2.25-7.34,7.22-14.65,14.46-21.98,21.69-2.9,2.86-5.8,5.73-8.78,8.67-3.22-2.73-5.9-5.79-7.62-9.55-1.68-3.67-4.3-6.46-7.53-8.74-2.77-1.95-5.79-3.38-9.28-3.28-3.09,.09-5.73,1.17-7.29,4.04-.97,1.78-.64,2.82,.95,4.01,2.59,1.95,5.15,3.95,7.72,5.93,1.08,.83,1.63,1.92,1.88,3.27,1.79,9.37,3.64,18.72,5.44,28.08,0,0,.41,3.92-.87,5.2s-23.63,23.67-23.63,23.67"></path><line class="cls-2-snap-icon" x1="61.42" y1="43.08" x2="50.23" y2="31.88"></line><line class="cls-2-snap-icon" x1="78.03" y1="43.26" x2="89.41" y2="31.88"></line><line class="cls-2-snap-icon" x1="69.82" y1="40.85" x2="69.82" y2="23.77"></line></svg>