<svg id="Calque_1" xmlns="http://www.w3.org/2000/svg" viewBox="0 0 150 150" stroke="currentColor" class="z-20 bg-white select-none transition-colors
                  h-8
                  text-barestho-blue cursor-pointer hover:text-barestho-red
                "><defs><style>.cls-1-seats-icon{stroke-linecap:round;stroke-linejoin:round;}.cls-1-seats-icon,.cls-2-seats-icon{fill:none;stroke:currentColor;stroke-width:7px;}.cls-2-seats-icon{stroke-miterlimit:10;}</style></defs><circle class="cls-2-seats-icon" cx="75" cy="75" r="68.27"></circle><circle class="cls-1-seats-icon" cx="75" cy="75" r="26.83"></circle><g><path class="cls-1-seats-icon" d="M36,75c0-3.85,.57-7.56,1.61-11.08-3.32,1.27-7.07,1.33-10.53-.04-.83,3.57-1.28,7.29-1.28,11.11s.45,7.54,1.28,11.11c3.46-1.37,7.21-1.31,10.53-.04-1.04-3.51-1.61-7.23-1.61-11.08Z"></path><path class="cls-1-seats-icon" d="M46.71,48.17c5.11-5.38,11.73-9.31,19.19-11.09-2.76-2.24-4.69-5.46-5.24-9.15-7.27,2.21-13.83,6.07-19.24,11.13,2.91,2.31,4.74,5.6,5.29,9.11Z"></path><path class="cls-1-seats-icon" d="M103.29,48.17c.55-3.51,2.38-6.8,5.29-9.11-5.41-5.06-11.97-8.92-19.24-11.13-.54,3.69-2.48,6.91-5.24,9.15,7.46,1.78,14.08,5.71,19.19,11.09Z"></path><path class="cls-1-seats-icon" d="M122.93,63.89c-3.46,1.37-7.21,1.31-10.53,.04,1.04,3.51,1.61,7.23,1.61,11.08s-.57,7.56-1.61,11.08c3.32-1.27,7.07-1.33,10.53,.04,.83-3.57,1.28-7.29,1.28-11.11s-.45-7.54-1.28-11.11Z"></path><path class="cls-1-seats-icon" d="M46.71,101.83c-.55,3.51-2.38,6.8-5.29,9.11,5.41,5.06,11.97,8.92,19.24,11.13,.54-3.69,2.48-6.91,5.24-9.15-7.46-1.78-14.08-5.71-19.19-11.09Z"></path><path class="cls-1-seats-icon" d="M103.29,101.83c-5.11,5.38-11.73,9.31-19.19,11.09,2.76,2.24,4.69,5.46,5.24,9.15,7.27-2.21,13.83-6.07,19.24-11.13-2.91-2.31-4.74-5.6-5.29-9.11Z"></path></g></svg>